<svg xmlns="http://www.w3.org/2000/svg" xmlns:xlink="http://www.w3.org/1999/xlink" width="166" zoomAndPan="magnify" viewBox="0 0 124.5 30.000001" height="40" preserveAspectRatio="xMidYMid meet" version="1.2"><defs><clipPath id="982ec32bfb"><path d="M 9.894531 0.0234375 L 24 0.0234375 L 24 28 L 9.894531 28 Z M 9.894531 0.0234375 "/></clipPath><clipPath id="520d06f310"><path d="M 1.765625 0 L 15.910156 0 L 15.910156 28 L 1.765625 28 Z M 1.765625 0 "/></clipPath></defs><g id="010d29b9bd"><g clip-rule="nonzero" clip-path="url(#982ec32bfb)"><path style=" stroke:none;fill-rule:nonzero;fill:#5e17eb;fill-opacity:1;" d="M 23.90625 0.144531 L 23.90625 23.199219 L 19.179688 27.917969 L 9.894531 20.320312 L 9.894531 14.074219 L 19.179688 21.597656 L 19.179688 3.351562 Z M 23.90625 0.144531 "/></g><g clip-rule="nonzero" clip-path="url(#520d06f310)"><path style=" stroke:none;fill-rule:nonzero;fill:#8c52ff;fill-opacity:1;" d="M 1.765625 27.894531 L 1.765625 4.84375 L 6.488281 0.121094 L 15.773438 7.726562 L 15.773438 13.972656 L 6.488281 6.445312 L 6.488281 24.695312 Z M 1.765625 27.894531 "/></g><g style="fill:#101828;fill-opacity:1;"><g transform="translate(28.716337, 15.648892)"><path style="stroke:none" d="M 2.078125 0 L 0.28125 0 L 0.28125 -12.40625 L 1.671875 -12.390625 L 7.703125 -3.671875 L 7.703125 -12.390625 L 9.46875 -12.390625 L 9.46875 0 L 8.0625 0 L 2.078125 -8.65625 Z M 2.078125 0 "/></g></g><g style="fill:#101828;fill-opacity:1;"><g transform="translate(39.384505, 15.648892)"><path style="stroke:none" d="M 2.015625 -5.296875 L 2.015625 -1.78125 L 7.765625 -1.78125 L 7.765625 0 L 0.21875 0 L 0.21875 -12.375 L 7.75 -12.375 L 7.75 -10.59375 L 2.015625 -10.59375 L 2.015625 -7.09375 L 7.625 -7.09375 L 7.625 -5.296875 Z M 2.015625 -5.296875 "/></g></g><g style="fill:#101828;fill-opacity:1;"><g transform="translate(47.929697, 15.648892)"><path style="stroke:none" d="M -0.75 -12.375 L 1.453125 -12.375 L 4.8125 -7.734375 L 8.203125 -12.375 L 10.375 -12.375 L 5.890625 -6.15625 C 6.222656 -5.695312 6.585938 -5.195312 6.984375 -4.65625 C 7.378906 -4.125 7.78125 -3.578125 8.1875 -3.015625 C 8.59375 -2.453125 8.984375 -1.910156 9.359375 -1.390625 C 9.742188 -0.878906 10.082031 -0.414062 10.375 0 L 8.203125 0 L 4.8125 -4.640625 L 1.453125 0 L -0.75 0 L 3.734375 -6.15625 C 3.398438 -6.613281 3.03125 -7.117188 2.625 -7.671875 C 2.226562 -8.222656 1.828125 -8.785156 1.421875 -9.359375 C 1.015625 -9.929688 0.625 -10.476562 0.25 -11 C -0.125 -11.53125 -0.457031 -11.988281 -0.75 -12.375 Z M -0.75 -12.375 "/></g></g><g style="fill:#101828;fill-opacity:1;"><g transform="translate(58.827858, 15.648892)"><path style="stroke:none" d="M 5.1875 0.046875 L 3.40625 0.046875 L 3.40625 -10.59375 L -0.359375 -10.59375 L -0.359375 -12.390625 L 8.921875 -12.390625 L 8.921875 -10.59375 L 5.1875 -10.59375 Z M 5.1875 0.046875 "/></g></g><g style="fill:#101828;fill-opacity:1;"><g transform="translate(68.540691, 15.648892)"><path style="stroke:none" d="M 2.71875 -5.4375 L 2.71875 -6.28125 L 4.8125 -6.28125 C 5.320312 -6.28125 5.738281 -6.382812 6.0625 -6.59375 C 6.394531 -6.8125 6.644531 -7.082031 6.8125 -7.40625 C 6.976562 -7.738281 7.0625 -8.082031 7.0625 -8.4375 C 7.0625 -8.789062 6.976562 -9.132812 6.8125 -9.46875 C 6.644531 -9.800781 6.394531 -10.070312 6.0625 -10.28125 C 5.738281 -10.488281 5.320312 -10.59375 4.8125 -10.59375 L 2.078125 -10.59375 L 2.078125 0 L 0.296875 0 L 0.296875 -12.390625 L 4.8125 -12.390625 C 5.707031 -12.390625 6.453125 -12.195312 7.046875 -11.8125 C 7.648438 -11.425781 8.097656 -10.929688 8.390625 -10.328125 C 8.691406 -9.734375 8.84375 -9.101562 8.84375 -8.4375 C 8.84375 -7.863281 8.722656 -7.304688 8.484375 -6.765625 C 8.253906 -6.234375 7.898438 -5.78125 7.421875 -5.40625 C 6.941406 -5.03125 6.347656 -4.78125 5.640625 -4.65625 L 9.5625 0 L 7.234375 0 Z M 2.71875 -5.4375 "/></g></g><g style="fill:#101828;fill-opacity:1;"><g transform="translate(78.129685, 15.648892)"><path style="stroke:none" d="M 2.015625 -5.296875 L 2.015625 -1.78125 L 7.765625 -1.78125 L 7.765625 0 L 0.21875 0 L 0.21875 -12.375 L 7.75 -12.375 L 7.75 -10.59375 L 2.015625 -10.59375 L 2.015625 -7.09375 L 7.625 -7.09375 L 7.625 -5.296875 Z M 2.015625 -5.296875 "/></g></g><g style="fill:#101828;fill-opacity:1;"><g transform="translate(86.674877, 15.648892)"><path style="stroke:none" d="M 4.890625 -9.703125 L 3.328125 -5.328125 L 6.40625 -5.328125 Z M 8.59375 0 L 7.09375 -3.640625 L 2.65625 -3.640625 C 2.414062 -3.078125 2.15625 -2.457031 1.875 -1.78125 C 1.601562 -1.113281 1.367188 -0.519531 1.171875 0 L -0.765625 0 L 4.21875 -12.546875 L 5.515625 -12.546875 L 10.5 0 Z M 8.59375 0 "/></g></g><g style="fill:#101828;fill-opacity:1;"><g transform="translate(97.343045, 15.648892)"><path style="stroke:none" d="M 2.125 -8.734375 L 2.125 0 L 0.34375 0 L 0.34375 -12.390625 L 1.78125 -12.390625 L 5.875 -6.375 L 9.96875 -12.390625 L 11.390625 -12.390625 L 11.390625 0 L 9.609375 0 L 9.609375 -8.734375 L 6.375 -3.90625 L 5.359375 -3.90625 Z M 2.125 -8.734375 "/></g></g><g style="fill:#545454;fill-opacity:1;"><g transform="translate(28.716337, 20.845101)"><path style="stroke:none" d="M 1.140625 -2.875 L 1.140625 -0.90625 C 1.140625 -0.75 1.175781 -0.632812 1.25 -0.5625 C 1.320312 -0.5 1.441406 -0.46875 1.609375 -0.46875 L 2.015625 -0.46875 L 2.015625 0 L 1.515625 0 C 1.203125 0 0.96875 -0.0664062 0.8125 -0.203125 C 0.664062 -0.347656 0.59375 -0.582031 0.59375 -0.90625 L 0.59375 -2.875 L 0.15625 -2.875 L 0.15625 -3.34375 L 0.59375 -3.34375 L 0.59375 -4.1875 L 1.140625 -4.1875 L 1.140625 -3.34375 L 2.015625 -3.34375 L 2.015625 -2.875 Z M 1.140625 -2.875 "/></g></g><g style="fill:#545454;fill-opacity:1;"><g transform="translate(31.025238, 20.845101)"><path style="stroke:none" d="M 3.515625 -1.796875 C 3.515625 -1.691406 3.507812 -1.582031 3.5 -1.46875 L 0.828125 -1.46875 C 0.847656 -1.132812 0.957031 -0.875 1.15625 -0.6875 C 1.363281 -0.507812 1.613281 -0.421875 1.90625 -0.421875 C 2.144531 -0.421875 2.34375 -0.472656 2.5 -0.578125 C 2.664062 -0.691406 2.785156 -0.84375 2.859375 -1.03125 L 3.453125 -1.03125 C 3.359375 -0.707031 3.175781 -0.441406 2.90625 -0.234375 C 2.644531 -0.0351562 2.3125 0.0625 1.90625 0.0625 C 1.59375 0.0625 1.3125 -0.0078125 1.0625 -0.15625 C 0.8125 -0.300781 0.613281 -0.503906 0.46875 -0.765625 C 0.332031 -1.023438 0.265625 -1.328125 0.265625 -1.671875 C 0.265625 -2.015625 0.332031 -2.316406 0.46875 -2.578125 C 0.601562 -2.835938 0.796875 -3.035156 1.046875 -3.171875 C 1.296875 -3.316406 1.582031 -3.390625 1.90625 -3.390625 C 2.226562 -3.390625 2.507812 -3.320312 2.75 -3.1875 C 3 -3.050781 3.1875 -2.859375 3.3125 -2.609375 C 3.445312 -2.367188 3.515625 -2.097656 3.515625 -1.796875 Z M 2.9375 -1.90625 C 2.9375 -2.125 2.890625 -2.304688 2.796875 -2.453125 C 2.703125 -2.609375 2.578125 -2.722656 2.421875 -2.796875 C 2.265625 -2.878906 2.085938 -2.921875 1.890625 -2.921875 C 1.609375 -2.921875 1.367188 -2.832031 1.171875 -2.65625 C 0.972656 -2.476562 0.859375 -2.226562 0.828125 -1.90625 Z M 2.9375 -1.90625 "/></g></g><g style="fill:#545454;fill-opacity:1;"><g transform="translate(34.893716, 20.845101)"><path style="stroke:none" d="M 0.265625 -1.671875 C 0.265625 -2.015625 0.332031 -2.316406 0.46875 -2.578125 C 0.601562 -2.835938 0.789062 -3.035156 1.03125 -3.171875 C 1.28125 -3.316406 1.566406 -3.390625 1.890625 -3.390625 C 2.296875 -3.390625 2.628906 -3.289062 2.890625 -3.09375 C 3.160156 -2.894531 3.34375 -2.617188 3.4375 -2.265625 L 2.828125 -2.265625 C 2.773438 -2.472656 2.664062 -2.632812 2.5 -2.75 C 2.332031 -2.863281 2.128906 -2.921875 1.890625 -2.921875 C 1.566406 -2.921875 1.304688 -2.8125 1.109375 -2.59375 C 0.921875 -2.375 0.828125 -2.066406 0.828125 -1.671875 C 0.828125 -1.273438 0.921875 -0.96875 1.109375 -0.75 C 1.304688 -0.53125 1.566406 -0.421875 1.890625 -0.421875 C 2.128906 -0.421875 2.328125 -0.472656 2.484375 -0.578125 C 2.648438 -0.691406 2.765625 -0.859375 2.828125 -1.078125 L 3.4375 -1.078125 C 3.34375 -0.734375 3.160156 -0.457031 2.890625 -0.25 C 2.628906 -0.0390625 2.296875 0.0625 1.890625 0.0625 C 1.566406 0.0625 1.28125 -0.0078125 1.03125 -0.15625 C 0.789062 -0.300781 0.601562 -0.503906 0.46875 -0.765625 C 0.332031 -1.023438 0.265625 -1.328125 0.265625 -1.671875 Z M 0.265625 -1.671875 "/></g></g><g style="fill:#545454;fill-opacity:1;"><g transform="translate(38.683002, 20.845101)"><path style="stroke:none" d="M 2.125 -3.40625 C 2.375 -3.40625 2.597656 -3.347656 2.796875 -3.234375 C 3.003906 -3.128906 3.164062 -2.96875 3.28125 -2.75 C 3.40625 -2.539062 3.46875 -2.28125 3.46875 -1.96875 L 3.46875 0 L 2.90625 0 L 2.90625 -1.890625 C 2.90625 -2.222656 2.820312 -2.476562 2.65625 -2.65625 C 2.488281 -2.832031 2.265625 -2.921875 1.984375 -2.921875 C 1.691406 -2.921875 1.457031 -2.828125 1.28125 -2.640625 C 1.113281 -2.460938 1.03125 -2.195312 1.03125 -1.84375 L 1.03125 0 L 0.46875 0 L 0.46875 -4.515625 L 1.03125 -4.515625 L 1.03125 -2.859375 C 1.132812 -3.035156 1.28125 -3.171875 1.46875 -3.265625 C 1.664062 -3.359375 1.882812 -3.40625 2.125 -3.40625 Z M 2.125 -3.40625 "/></g></g><g style="fill:#545454;fill-opacity:1;"><g transform="translate(42.673324, 20.845101)"><path style="stroke:none" d=""/></g></g><g style="fill:#545454;fill-opacity:1;"><g transform="translate(44.391294, 20.845101)"><path style="stroke:none" d="M 3.734375 0 L 3.171875 -0.5625 C 2.960938 -0.34375 2.738281 -0.179688 2.5 -0.078125 C 2.269531 0.0234375 2.007812 0.078125 1.71875 0.078125 C 1.425781 0.078125 1.164062 0.0234375 0.9375 -0.078125 C 0.707031 -0.191406 0.53125 -0.34375 0.40625 -0.53125 C 0.28125 -0.726562 0.21875 -0.957031 0.21875 -1.21875 C 0.21875 -1.507812 0.300781 -1.769531 0.46875 -2 C 0.644531 -2.226562 0.894531 -2.40625 1.21875 -2.53125 C 1.09375 -2.6875 1 -2.828125 0.9375 -2.953125 C 0.882812 -3.085938 0.859375 -3.234375 0.859375 -3.390625 C 0.859375 -3.566406 0.90625 -3.726562 1 -3.875 C 1.09375 -4.019531 1.222656 -4.128906 1.390625 -4.203125 C 1.554688 -4.285156 1.753906 -4.328125 1.984375 -4.328125 C 2.203125 -4.328125 2.390625 -4.285156 2.546875 -4.203125 C 2.710938 -4.117188 2.835938 -4 2.921875 -3.84375 C 3.003906 -3.695312 3.039062 -3.53125 3.03125 -3.34375 L 2.46875 -3.34375 C 2.476562 -3.507812 2.429688 -3.640625 2.328125 -3.734375 C 2.234375 -3.828125 2.109375 -3.875 1.953125 -3.875 C 1.796875 -3.875 1.664062 -3.828125 1.5625 -3.734375 C 1.457031 -3.640625 1.40625 -3.523438 1.40625 -3.390625 C 1.40625 -3.265625 1.4375 -3.144531 1.5 -3.03125 C 1.570312 -2.914062 1.691406 -2.773438 1.859375 -2.609375 L 3.125 -1.34375 L 3.234375 -1.515625 L 3.640625 -2.203125 L 4.234375 -2.203125 L 3.734375 -1.34375 C 3.671875 -1.21875 3.59375 -1.085938 3.5 -0.953125 L 4.453125 0 Z M 1.71875 -0.40625 C 1.9375 -0.40625 2.132812 -0.445312 2.3125 -0.53125 C 2.488281 -0.613281 2.65625 -0.742188 2.8125 -0.921875 L 1.5625 -2.1875 C 1.039062 -1.988281 0.78125 -1.671875 0.78125 -1.234375 C 0.78125 -0.992188 0.863281 -0.796875 1.03125 -0.640625 C 1.207031 -0.484375 1.4375 -0.40625 1.71875 -0.40625 Z M 1.71875 -0.40625 "/></g></g><g style="fill:#545454;fill-opacity:1;"><g transform="translate(48.984732, 20.845101)"><path style="stroke:none" d=""/></g></g><g style="fill:#545454;fill-opacity:1;"><g transform="translate(50.702701, 20.845101)"><path style="stroke:none" d="M 1.65625 0.0625 C 1.394531 0.0625 1.160156 0.0195312 0.953125 -0.0625 C 0.753906 -0.15625 0.59375 -0.28125 0.46875 -0.4375 C 0.351562 -0.59375 0.289062 -0.773438 0.28125 -0.984375 L 0.859375 -0.984375 C 0.878906 -0.816406 0.957031 -0.679688 1.09375 -0.578125 C 1.226562 -0.472656 1.410156 -0.421875 1.640625 -0.421875 C 1.859375 -0.421875 2.023438 -0.460938 2.140625 -0.546875 C 2.265625 -0.640625 2.328125 -0.757812 2.328125 -0.90625 C 2.328125 -1.050781 2.257812 -1.160156 2.125 -1.234375 C 2 -1.304688 1.800781 -1.375 1.53125 -1.4375 C 1.28125 -1.507812 1.078125 -1.578125 0.921875 -1.640625 C 0.765625 -1.710938 0.628906 -1.8125 0.515625 -1.9375 C 0.410156 -2.070312 0.359375 -2.25 0.359375 -2.46875 C 0.359375 -2.632812 0.40625 -2.785156 0.5 -2.921875 C 0.601562 -3.066406 0.75 -3.179688 0.9375 -3.265625 C 1.125 -3.347656 1.335938 -3.390625 1.578125 -3.390625 C 1.941406 -3.390625 2.238281 -3.296875 2.46875 -3.109375 C 2.695312 -2.921875 2.820312 -2.664062 2.84375 -2.34375 L 2.28125 -2.34375 C 2.269531 -2.519531 2.203125 -2.660156 2.078125 -2.765625 C 1.953125 -2.867188 1.78125 -2.921875 1.5625 -2.921875 C 1.363281 -2.921875 1.203125 -2.878906 1.078125 -2.796875 C 0.960938 -2.710938 0.90625 -2.601562 0.90625 -2.46875 C 0.90625 -2.351562 0.941406 -2.257812 1.015625 -2.1875 C 1.085938 -2.113281 1.175781 -2.054688 1.28125 -2.015625 C 1.382812 -1.972656 1.535156 -1.925781 1.734375 -1.875 C 1.972656 -1.8125 2.164062 -1.75 2.3125 -1.6875 C 2.46875 -1.625 2.597656 -1.53125 2.703125 -1.40625 C 2.804688 -1.28125 2.863281 -1.113281 2.875 -0.90625 C 2.875 -0.726562 2.820312 -0.5625 2.71875 -0.40625 C 2.613281 -0.257812 2.46875 -0.144531 2.28125 -0.0625 C 2.101562 0.0195312 1.894531 0.0625 1.65625 0.0625 Z M 1.65625 0.0625 "/></g></g><g style="fill:#545454;fill-opacity:1;"><g transform="translate(53.974153, 20.845101)"><path style="stroke:none" d="M 1.921875 0.0625 C 1.609375 0.0625 1.320312 -0.0078125 1.0625 -0.15625 C 0.8125 -0.300781 0.613281 -0.503906 0.46875 -0.765625 C 0.332031 -1.023438 0.265625 -1.328125 0.265625 -1.671875 C 0.265625 -2.015625 0.335938 -2.316406 0.484375 -2.578125 C 0.628906 -2.835938 0.828125 -3.035156 1.078125 -3.171875 C 1.335938 -3.316406 1.628906 -3.390625 1.953125 -3.390625 C 2.265625 -3.390625 2.546875 -3.316406 2.796875 -3.171875 C 3.054688 -3.035156 3.257812 -2.835938 3.40625 -2.578125 C 3.5625 -2.316406 3.640625 -2.015625 3.640625 -1.671875 C 3.640625 -1.328125 3.5625 -1.023438 3.40625 -0.765625 C 3.257812 -0.503906 3.054688 -0.300781 2.796875 -0.15625 C 2.535156 -0.0078125 2.242188 0.0625 1.921875 0.0625 Z M 1.921875 -0.4375 C 2.117188 -0.4375 2.304688 -0.484375 2.484375 -0.578125 C 2.660156 -0.671875 2.800781 -0.8125 2.90625 -1 C 3.019531 -1.1875 3.078125 -1.410156 3.078125 -1.671875 C 3.078125 -1.941406 3.019531 -2.171875 2.90625 -2.359375 C 2.800781 -2.546875 2.664062 -2.679688 2.5 -2.765625 C 2.332031 -2.859375 2.144531 -2.90625 1.9375 -2.90625 C 1.738281 -2.90625 1.554688 -2.859375 1.390625 -2.765625 C 1.222656 -2.679688 1.085938 -2.546875 0.984375 -2.359375 C 0.878906 -2.171875 0.828125 -1.941406 0.828125 -1.671875 C 0.828125 -1.398438 0.875 -1.171875 0.96875 -0.984375 C 1.070312 -0.796875 1.207031 -0.65625 1.375 -0.5625 C 1.539062 -0.476562 1.722656 -0.4375 1.921875 -0.4375 Z M 1.921875 -0.4375 "/></g></g><g style="fill:#545454;fill-opacity:1;"><g transform="translate(57.964475, 20.845101)"><path style="stroke:none" d="M 1.03125 -4.515625 L 1.03125 0 L 0.46875 0 L 0.46875 -4.515625 Z M 1.03125 -4.515625 "/></g></g><g style="fill:#545454;fill-opacity:1;"><g transform="translate(59.554512, 20.845101)"><path style="stroke:none" d="M 3.4375 -3.34375 L 3.4375 0 L 2.875 0 L 2.875 -0.5 C 2.769531 -0.320312 2.625 -0.1875 2.4375 -0.09375 C 2.25 0 2.039062 0.046875 1.8125 0.046875 C 1.550781 0.046875 1.316406 -0.00390625 1.109375 -0.109375 C 0.898438 -0.222656 0.734375 -0.382812 0.609375 -0.59375 C 0.492188 -0.8125 0.4375 -1.078125 0.4375 -1.390625 L 0.4375 -3.34375 L 0.984375 -3.34375 L 0.984375 -1.453125 C 0.984375 -1.128906 1.066406 -0.878906 1.234375 -0.703125 C 1.398438 -0.523438 1.628906 -0.4375 1.921875 -0.4375 C 2.210938 -0.4375 2.441406 -0.523438 2.609375 -0.703125 C 2.785156 -0.890625 2.875 -1.15625 2.875 -1.5 L 2.875 -3.34375 Z M 3.4375 -3.34375 "/></g></g><g style="fill:#545454;fill-opacity:1;"><g transform="translate(63.544834, 20.845101)"><path style="stroke:none" d="M 1.140625 -2.875 L 1.140625 -0.90625 C 1.140625 -0.75 1.175781 -0.632812 1.25 -0.5625 C 1.320312 -0.5 1.441406 -0.46875 1.609375 -0.46875 L 2.015625 -0.46875 L 2.015625 0 L 1.515625 0 C 1.203125 0 0.96875 -0.0664062 0.8125 -0.203125 C 0.664062 -0.347656 0.59375 -0.582031 0.59375 -0.90625 L 0.59375 -2.875 L 0.15625 -2.875 L 0.15625 -3.34375 L 0.59375 -3.34375 L 0.59375 -4.1875 L 1.140625 -4.1875 L 1.140625 -3.34375 L 2.015625 -3.34375 L 2.015625 -2.875 Z M 1.140625 -2.875 "/></g></g><g style="fill:#545454;fill-opacity:1;"><g transform="translate(65.853734, 20.845101)"><path style="stroke:none" d="M 0.75 -3.875 C 0.644531 -3.875 0.554688 -3.910156 0.484375 -3.984375 C 0.410156 -4.054688 0.375 -4.148438 0.375 -4.265625 C 0.375 -4.367188 0.410156 -4.457031 0.484375 -4.53125 C 0.554688 -4.601562 0.644531 -4.640625 0.75 -4.640625 C 0.851562 -4.640625 0.941406 -4.601562 1.015625 -4.53125 C 1.085938 -4.457031 1.125 -4.367188 1.125 -4.265625 C 1.125 -4.148438 1.085938 -4.054688 1.015625 -3.984375 C 0.941406 -3.910156 0.851562 -3.875 0.75 -3.875 Z M 1.03125 -3.34375 L 1.03125 0 L 0.46875 0 L 0.46875 -3.34375 Z M 1.03125 -3.34375 "/></g></g><g style="fill:#545454;fill-opacity:1;"><g transform="translate(67.443771, 20.845101)"><path style="stroke:none" d="M 1.921875 0.0625 C 1.609375 0.0625 1.320312 -0.0078125 1.0625 -0.15625 C 0.8125 -0.300781 0.613281 -0.503906 0.46875 -0.765625 C 0.332031 -1.023438 0.265625 -1.328125 0.265625 -1.671875 C 0.265625 -2.015625 0.335938 -2.316406 0.484375 -2.578125 C 0.628906 -2.835938 0.828125 -3.035156 1.078125 -3.171875 C 1.335938 -3.316406 1.628906 -3.390625 1.953125 -3.390625 C 2.265625 -3.390625 2.546875 -3.316406 2.796875 -3.171875 C 3.054688 -3.035156 3.257812 -2.835938 3.40625 -2.578125 C 3.5625 -2.316406 3.640625 -2.015625 3.640625 -1.671875 C 3.640625 -1.328125 3.5625 -1.023438 3.40625 -0.765625 C 3.257812 -0.503906 3.054688 -0.300781 2.796875 -0.15625 C 2.535156 -0.0078125 2.242188 0.0625 1.921875 0.0625 Z M 1.921875 -0.4375 C 2.117188 -0.4375 2.304688 -0.484375 2.484375 -0.578125 C 2.660156 -0.671875 2.800781 -0.8125 2.90625 -1 C 3.019531 -1.1875 3.078125 -1.410156 3.078125 -1.671875 C 3.078125 -1.941406 3.019531 -2.171875 2.90625 -2.359375 C 2.800781 -2.546875 2.664062 -2.679688 2.5 -2.765625 C 2.332031 -2.859375 2.144531 -2.90625 1.9375 -2.90625 C 1.738281 -2.90625 1.554688 -2.859375 1.390625 -2.765625 C 1.222656 -2.679688 1.085938 -2.546875 0.984375 -2.359375 C 0.878906 -2.171875 0.828125 -1.941406 0.828125 -1.671875 C 0.828125 -1.398438 0.875 -1.171875 0.96875 -0.984375 C 1.070312 -0.796875 1.207031 -0.65625 1.375 -0.5625 C 1.539062 -0.476562 1.722656 -0.4375 1.921875 -0.4375 Z M 1.921875 -0.4375 "/></g></g><g style="fill:#545454;fill-opacity:1;"><g transform="translate(71.434093, 20.845101)"><path style="stroke:none" d="M 2.09375 -3.40625 C 2.5 -3.40625 2.828125 -3.28125 3.078125 -3.03125 C 3.335938 -2.78125 3.46875 -2.425781 3.46875 -1.96875 L 3.46875 0 L 2.90625 0 L 2.90625 -1.890625 C 2.90625 -2.222656 2.820312 -2.476562 2.65625 -2.65625 C 2.488281 -2.832031 2.265625 -2.921875 1.984375 -2.921875 C 1.691406 -2.921875 1.457031 -2.828125 1.28125 -2.640625 C 1.113281 -2.460938 1.03125 -2.195312 1.03125 -1.84375 L 1.03125 0 L 0.46875 0 L 0.46875 -3.34375 L 1.03125 -3.34375 L 1.03125 -2.859375 C 1.132812 -3.035156 1.28125 -3.171875 1.46875 -3.265625 C 1.65625 -3.359375 1.863281 -3.40625 2.09375 -3.40625 Z M 2.09375 -3.40625 "/></g></g><g style="fill:#545454;fill-opacity:1;"><g transform="translate(75.424415, 20.845101)"><path style="stroke:none" d="M 1.65625 0.0625 C 1.394531 0.0625 1.160156 0.0195312 0.953125 -0.0625 C 0.753906 -0.15625 0.59375 -0.28125 0.46875 -0.4375 C 0.351562 -0.59375 0.289062 -0.773438 0.28125 -0.984375 L 0.859375 -0.984375 C 0.878906 -0.816406 0.957031 -0.679688 1.09375 -0.578125 C 1.226562 -0.472656 1.410156 -0.421875 1.640625 -0.421875 C 1.859375 -0.421875 2.023438 -0.460938 2.140625 -0.546875 C 2.265625 -0.640625 2.328125 -0.757812 2.328125 -0.90625 C 2.328125 -1.050781 2.257812 -1.160156 2.125 -1.234375 C 2 -1.304688 1.800781 -1.375 1.53125 -1.4375 C 1.28125 -1.507812 1.078125 -1.578125 0.921875 -1.640625 C 0.765625 -1.710938 0.628906 -1.8125 0.515625 -1.9375 C 0.410156 -2.070312 0.359375 -2.25 0.359375 -2.46875 C 0.359375 -2.632812 0.40625 -2.785156 0.5 -2.921875 C 0.601562 -3.066406 0.75 -3.179688 0.9375 -3.265625 C 1.125 -3.347656 1.335938 -3.390625 1.578125 -3.390625 C 1.941406 -3.390625 2.238281 -3.296875 2.46875 -3.109375 C 2.695312 -2.921875 2.820312 -2.664062 2.84375 -2.34375 L 2.28125 -2.34375 C 2.269531 -2.519531 2.203125 -2.660156 2.078125 -2.765625 C 1.953125 -2.867188 1.78125 -2.921875 1.5625 -2.921875 C 1.363281 -2.921875 1.203125 -2.878906 1.078125 -2.796875 C 0.960938 -2.710938 0.90625 -2.601562 0.90625 -2.46875 C 0.90625 -2.351562 0.941406 -2.257812 1.015625 -2.1875 C 1.085938 -2.113281 1.175781 -2.054688 1.28125 -2.015625 C 1.382812 -1.972656 1.535156 -1.925781 1.734375 -1.875 C 1.972656 -1.8125 2.164062 -1.75 2.3125 -1.6875 C 2.46875 -1.625 2.597656 -1.53125 2.703125 -1.40625 C 2.804688 -1.28125 2.863281 -1.113281 2.875 -0.90625 C 2.875 -0.726562 2.820312 -0.5625 2.71875 -0.40625 C 2.613281 -0.257812 2.46875 -0.144531 2.28125 -0.0625 C 2.101562 0.0195312 1.894531 0.0625 1.65625 0.0625 Z M 1.65625 0.0625 "/></g></g></g></svg>